<svg width="16" height="17" viewBox="0 0 16 17" fill="none" xmlns="http://www.w3.org/2000/svg">
<path fill-rule="evenodd" clip-rule="evenodd" d="M12.6666 2.49999H13.3333C14.0666 2.49999 14.6666 3.09999 14.6666 3.83332V14.5C14.6666 15.2333 14.0666 15.8333 13.3333 15.8333H2.66665C1.93331 15.8333 1.33331 15.2333 1.33331 14.5V3.83332C1.33331 3.09999 1.93331 2.49999 2.66665 2.49999H3.33331V1.83332C3.33331 1.46666 3.63331 1.16666 3.99998 1.16666C4.36665 1.16666 4.66665 1.46666 4.66665 1.83332V2.49999H11.3333V1.83332C11.3333 1.46666 11.6333 1.16666 12 1.16666C12.3666 1.16666 12.6666 1.46666 12.6666 1.83332V2.49999ZM3.33331 14.5H12.6666C13.0333 14.5 13.3333 14.2 13.3333 13.8333V5.83332H2.66665V13.8333C2.66665 14.2 2.96665 14.5 3.33331 14.5Z" fill="#494E50"/>
</svg>
