<svg width="22" height="22" viewBox="0 0 22 22" fill="none" xmlns="http://www.w3.org/2000/svg">
<path d="M9.7999 20.6H3.79989C2.47441 20.6 1.39989 19.5254 1.3999 18.2L1.4 3.80001C1.4 2.47453 2.47452 1.40002 3.79999 1.40002H14.6003C15.9257 1.40002 17.0003 2.47454 17.0003 3.80002V8.60002M16.3999 16.349V16.2858M5.60028 6.20002H12.8003M5.60028 9.80002H12.8003M5.60028 13.4H9.20028M20.5999 16.4C20.5999 16.4 19.6037 19.3397 16.3999 19.2883C13.1961 19.237 12.1999 16.4 12.1999 16.4C12.1999 16.4 13.1557 13.409 16.3999 13.409C19.6441 13.409 20.5999 16.4 20.5999 16.4Z" stroke="#757575" stroke-width="2" stroke-linecap="round" stroke-linejoin="round"/>
</svg>
